<?xml version="1.0" encoding="utf-8"?>
<!-- Generator: Adobe Illustrator 16.0.0, SVG Export Plug-In . SVG Version: 6.00 Build 0)  -->
<!DOCTYPE svg PUBLIC "-//W3C//DTD SVG 1.1//EN" "http://www.w3.org/Graphics/SVG/1.1/DTD/svg11.dtd">
<svg version="1.1" id="Layer_1" xmlns="http://www.w3.org/2000/svg" xmlns:xlink="http://www.w3.org/1999/xlink" x="0px" y="0px"
	 width="24px" height="24px" viewBox="0 0 24 24" enable-background="new 0 0 24 24" xml:space="preserve">
<linearGradient id="SVGID_1_" gradientUnits="userSpaceOnUse" x1="-47.0444" y1="2.8398" x2="-47.0444" y2="-13.8057" gradientTransform="matrix(1 0 0 -1 59.04 7.3398)">
	<stop  offset="0" style="stop-color:#FEB5FF"/>
	<stop  offset="1" style="stop-color:#FF6D81"/>
</linearGradient>
<path fill="url(#SVGID_1_)" d="M17.5,4.5c-1.95,0-4.05,0.4-5.5,1.5c-1.45-1.1-3.55-1.5-5.5-1.5c-1.45,0-2.99,0.22-4.28,0.79
	C1.49,5.62,1,6.33,1,7.14v11.28c0,1.3,1.22,2.26,2.48,1.939C4.46,20.109,5.5,20,6.5,20c1.56,0,3.22,0.26,4.56,0.92
	c0.6,0.3,1.28,0.3,1.87,0c1.34-0.67,3-0.92,4.561-0.92c1,0,2.039,0.109,3.02,0.359c1.26,0.33,2.48-0.629,2.48-1.939V7.14
	c0-0.81-0.49-1.52-1.221-1.85C20.49,4.72,18.95,4.5,17.5,4.5z M21,17.23c0,0.629-0.58,1.09-1.2,0.979c-0.75-0.14-1.53-0.2-2.3-0.2
	c-1.7,0-4.15,0.65-5.5,1.5V8c1.35-0.85,3.8-1.5,5.5-1.5c0.92,0,1.83,0.09,2.7,0.28C20.66,6.88,21,7.29,21,7.76V17.23z"/>
<linearGradient id="SVGID_2_" gradientUnits="userSpaceOnUse" x1="-42.5361" y1="-1.6699" x2="-42.5361" y2="-3.6699" gradientTransform="matrix(1 0 0 -1 59.04 7.3398)">
	<stop  offset="0" style="stop-color:#FEB5FF"/>
	<stop  offset="1" style="stop-color:#FF6D81"/>
</linearGradient>
<path fill="url(#SVGID_2_)" d="M13.98,11.01c-0.32,0-0.61-0.2-0.711-0.52c-0.129-0.39,0.09-0.82,0.48-0.94
	c1.54-0.5,3.529-0.66,5.359-0.45c0.41,0.05,0.711,0.42,0.66,0.83c-0.05,0.41-0.42,0.71-0.83,0.66c-1.619-0.19-3.39-0.04-4.729,0.39
	C14.13,10.99,14.05,11.01,13.98,11.01z"/>
<linearGradient id="SVGID_3_" gradientUnits="userSpaceOnUse" x1="-42.5361" y1="-4.3301" x2="-42.5361" y2="-6.3306" gradientTransform="matrix(1 0 0 -1 59.04 7.3398)">
	<stop  offset="0" style="stop-color:#FEB5FF"/>
	<stop  offset="1" style="stop-color:#FF6D81"/>
</linearGradient>
<path fill="url(#SVGID_3_)" d="M13.98,13.67c-0.32,0-0.61-0.2-0.711-0.52c-0.129-0.391,0.09-0.82,0.48-0.94
	c1.529-0.5,3.529-0.66,5.359-0.45c0.41,0.05,0.711,0.42,0.66,0.83c-0.05,0.41-0.42,0.71-0.83,0.66
	c-1.619-0.189-3.39-0.04-4.729,0.391C14.13,13.66,14.05,13.67,13.98,13.67z"/>
<linearGradient id="SVGID_4_" gradientUnits="userSpaceOnUse" x1="-42.5361" y1="-6.9902" x2="-42.5361" y2="-8.9907" gradientTransform="matrix(1 0 0 -1 59.04 7.3398)">
	<stop  offset="0" style="stop-color:#FEB5FF"/>
	<stop  offset="1" style="stop-color:#FF6D81"/>
</linearGradient>
<path fill="url(#SVGID_4_)" d="M13.98,16.33c-0.32,0-0.61-0.2-0.711-0.52c-0.129-0.391,0.09-0.82,0.48-0.94
	c1.529-0.5,3.529-0.66,5.359-0.45c0.41,0.05,0.711,0.42,0.66,0.83c-0.05,0.41-0.42,0.7-0.83,0.66c-1.619-0.19-3.39-0.04-4.729,0.39
	C14.13,16.32,14.05,16.33,13.98,16.33z"/>
</svg>
