<?xml version="1.0" encoding="utf-8"?>
<!-- Generator: Adobe Illustrator 16.0.0, SVG Export Plug-In . SVG Version: 6.00 Build 0)  -->
<!DOCTYPE svg PUBLIC "-//W3C//DTD SVG 1.1//EN" "http://www.w3.org/Graphics/SVG/1.1/DTD/svg11.dtd">
<svg version="1.1" id="Layer_1" xmlns="http://www.w3.org/2000/svg" xmlns:xlink="http://www.w3.org/1999/xlink" x="0px" y="0px"
	 width="24px" height="24px" viewBox="0 0 24 24" enable-background="new 0 0 24 24" xml:space="preserve">
<linearGradient id="SVGID_1_" gradientUnits="userSpaceOnUse" x1="-47.2446" y1="5.3398" x2="-47.2446" y2="-14.6606" gradientTransform="matrix(1 0 0 -1 59.04 7.3398)">
	<stop  offset="0" style="stop-color:#FEB5FF"/>
	<stop  offset="1" style="stop-color:#FF6D81"/>
</linearGradient>
<path fill="url(#SVGID_1_)" d="M12.65,15.67c0.14-0.359,0.05-0.77-0.23-1.05l-2.09-2.06l0.03-0.03c1.74-1.94,2.98-4.17,3.71-6.53
	h1.939C16.55,6,17,5.55,17,5.01V4.99C17,4.45,16.55,4,16.01,4H10V3c0-0.55-0.45-1-1-1S8,2.45,8,3v1H1.99C1.45,4,1,4.45,1,4.99
	c0,0.55,0.45,0.99,0.99,0.99h10.18C11.5,7.92,10.44,9.75,9,11.35c-0.81-0.89-1.49-1.86-2.06-2.88C6.78,8.18,6.49,8,6.16,8
	C5.47,8,5.03,8.75,5.37,9.35c0.63,1.13,1.4,2.21,2.3,3.21L3.3,16.87c-0.4,0.39-0.4,1.03,0,1.42c0.39,0.39,1.02,0.39,1.42,0L9,14
	l2.02,2.02C11.53,16.53,12.4,16.34,12.65,15.67L12.65,15.67z M17.5,10c-0.6,0-1.141,0.37-1.35,0.94l-3.67,9.8
	C12.24,21.35,12.7,22,13.35,22c0.391,0,0.74-0.24,0.881-0.609L15.12,19h4.75l0.899,2.391C20.91,21.75,21.26,22,21.65,22
	c0.649,0,1.109-0.65,0.879-1.26l-3.67-9.8C18.641,10.37,18.1,10,17.5,10L17.5,10z M15.88,17l1.62-4.33L19.12,17H15.88L15.88,17z"/>
</svg>
